<svg id="visual" viewBox="0 0 675 900" width="675" height="900" xmlns="http://www.w3.org/2000/svg" xmlns:xlink="http://www.w3.org/1999/xlink" version="1.1"><path d="M0 145L10.2 166C20.3 187 40.7 229 61.2 251.5C81.7 274 102.3 277 122.8 262C143.3 247 163.7 214 184 206.5C204.3 199 224.7 217 245.2 235C265.7 253 286.3 271 306.8 272.5C327.3 274 347.7 259 368.2 260.5C388.7 262 409.3 280 429.8 295C450.3 310 470.7 322 491 343C511.3 364 531.7 394 552.2 368.5C572.7 343 593.3 262 613.8 217C634.3 172 654.7 163 664.8 158.5L675 154L675 0L664.8 0C654.7 0 634.3 0 613.8 0C593.3 0 572.7 0 552.2 0C531.7 0 511.3 0 491 0C470.7 0 450.3 0 429.8 0C409.3 0 388.7 0 368.2 0C347.7 0 327.3 0 306.8 0C286.3 0 265.7 0 245.2 0C224.7 0 204.3 0 184 0C163.7 0 143.3 0 122.8 0C102.3 0 81.7 0 61.2 0C40.7 0 20.3 0 10.2 0L0 0Z" fill="#6198ff"></path><path d="M0 253L10.2 269.5C20.3 286 40.7 319 61.2 338.5C81.7 358 102.3 364 122.8 355C143.3 346 163.7 322 184 323.5C204.3 325 224.7 352 245.2 368.5C265.7 385 286.3 391 306.8 394C327.3 397 347.7 397 368.2 404.5C388.7 412 409.3 427 429.8 436C450.3 445 470.7 448 491 460C511.3 472 531.7 493 552.2 461.5C572.7 430 593.3 346 613.8 310C634.3 274 654.7 286 664.8 292L675 298L675 152L664.8 156.5C654.7 161 634.3 170 613.8 215C593.3 260 572.7 341 552.2 366.5C531.7 392 511.3 362 491 341C470.7 320 450.3 308 429.8 293C409.3 278 388.7 260 368.2 258.5C347.7 257 327.3 272 306.8 270.5C286.3 269 265.7 251 245.2 233C224.7 215 204.3 197 184 204.5C163.7 212 143.3 245 122.8 260C102.3 275 81.7 272 61.2 249.5C40.7 227 20.3 185 10.2 164L0 143Z" fill="#3c80ff"></path><path d="M0 433L10.2 461.5C20.3 490 40.7 547 61.2 577C81.7 607 102.3 610 122.8 586C143.3 562 163.7 511 184 508C204.3 505 224.7 550 245.2 563.5C265.7 577 286.3 559 306.8 551.5C327.3 544 347.7 547 368.2 557.5C388.7 568 409.3 586 429.8 593.5C450.3 601 470.7 598 491 602.5C511.3 607 531.7 619 552.2 577C572.7 535 593.3 439 613.8 419.5C634.3 400 654.7 457 664.8 485.5L675 514L675 296L664.8 290C654.7 284 634.3 272 613.8 308C593.3 344 572.7 428 552.2 459.5C531.7 491 511.3 470 491 458C470.7 446 450.3 443 429.8 434C409.3 425 388.7 410 368.2 402.5C347.7 395 327.3 395 306.8 392C286.3 389 265.7 383 245.2 366.5C224.7 350 204.3 323 184 321.5C163.7 320 143.3 344 122.8 353C102.3 362 81.7 356 61.2 336.5C40.7 317 20.3 284 10.2 267.5L0 251Z" fill="#0066ff"></path><path d="M0 748L10.2 754C20.3 760 40.7 772 61.2 782.5C81.7 793 102.3 802 122.8 808C143.3 814 163.7 817 184 815.5C204.3 814 224.7 808 245.2 791.5C265.7 775 286.3 748 306.8 736C327.3 724 347.7 727 368.2 731.5C388.7 736 409.3 742 429.8 749.5C450.3 757 470.7 766 491 779.5C511.3 793 531.7 811 552.2 812.5C572.7 814 593.3 799 613.8 796C634.3 793 654.7 802 664.8 806.5L675 811L675 512L664.8 483.5C654.7 455 634.3 398 613.8 417.5C593.3 437 572.7 533 552.2 575C531.7 617 511.3 605 491 600.5C470.7 596 450.3 599 429.8 591.5C409.3 584 388.7 566 368.2 555.5C347.7 545 327.3 542 306.8 549.5C286.3 557 265.7 575 245.2 561.5C224.7 548 204.3 503 184 506C163.7 509 143.3 560 122.8 584C102.3 608 81.7 605 61.2 575C40.7 545 20.3 488 10.2 459.5L0 431Z" fill="#0059dd"></path><path d="M0 901L10.2 901C20.3 901 40.7 901 61.2 901C81.7 901 102.3 901 122.8 901C143.3 901 163.7 901 184 901C204.3 901 224.7 901 245.2 901C265.7 901 286.3 901 306.8 901C327.3 901 347.7 901 368.2 901C388.7 901 409.3 901 429.8 901C450.3 901 470.7 901 491 901C511.3 901 531.7 901 552.2 901C572.7 901 593.3 901 613.8 901C634.3 901 654.7 901 664.8 901L675 901L675 809L664.8 804.5C654.7 800 634.3 791 613.8 794C593.3 797 572.7 812 552.2 810.5C531.7 809 511.3 791 491 777.5C470.7 764 450.3 755 429.8 747.5C409.3 740 388.7 734 368.2 729.5C347.7 725 327.3 722 306.8 734C286.3 746 265.7 773 245.2 789.5C224.7 806 204.3 812 184 813.5C163.7 815 143.3 812 122.8 806C102.3 800 81.7 791 61.2 780.5C40.7 770 20.3 758 10.2 752L0 746Z" fill="#004cbb"></path></svg>